<?xml version="1.0" standalone="no"?>
<!DOCTYPE svg PUBLIC "-//W3C//DTD SVG 1.1//EN" "http://www.w3.org/Graphics/SVG/1.1/DTD/svg11.dtd">
<svg xmlns="http://www.w3.org/2000/svg">
<metadata>Copyright (C) 2014 by original authors @ fontello.com</metadata>
<defs>
<font id="fontello" horiz-adv-x="1000" >
<font-face font-family="fontello" font-weight="400" font-stretch="normal" units-per-em="1000" ascent="850" descent="-150" />
<missing-glyph horiz-adv-x="1000" />
<glyph glyph-name="all_files_count" unicode="&#xe800;" d="m122 850l591 0c34 0 64-14 86-36l0 0c22-22 36-52 36-86l0-756c0-34-14-64-36-86l0 0c-22-22-52-36-86-36l-591 0c-34 0-64 14-86 36l0 0c-22 22-36 52-36 86l0 756c0 34 14 64 36 86l0 0c22 22 52 36 86 36z m591-90l-591 0c-9 0-17-4-22-9l-1 0c-5-6-9-14-9-23l0-756c0-9 4-17 9-23l1 0c5-5 13-9 22-9l591 0c9 0 17 4 22 9l1 0c5 6 9 14 9 23l0 756c0 9-4 17-9 23l-1 0c-5 5-13 9-22 9z" horiz-adv-x="835" />
<glyph glyph-name="nonsos_title" unicode="&#xe820;" d="m998 17c0-46-16-85-49-118c-33-33-72-49-118-49c-46 0-86 16-118 49c-33 33-50 72-50 118l0 333c0 46-16 85-48 117c-32 32-70 48-115 48c-45 0-83-16-116-48c-33-32-49-71-49-117l0-333c0-46-17-85-50-118c-32-33-72-49-118-49c-46 0-85 16-118 49c-33 33-49 72-49 118l0 333c0 138 49 256 147 353c97 98 215 147 353 147c138 0 255-49 352-147c98-97 146-215 146-353l0-333z m1085 334c0-138-49-256-146-354c-97-98-214-147-352-147c-138 0-256 49-354 147c-97 98-146 216-146 354c0 138 49 256 146 353c98 97 216 146 354 146c138 0 255-49 352-146c97-97 146-215 146-353z m-335 0c0 46-16 85-47 117c-32 32-70 47-116 47c-46 0-85-16-117-48c-33-32-49-71-49-116c0-45 17-84 50-117c32-33 71-49 116-49c44 0 83 16 115 48c32 32 48 72 48 118z m1419-334c0-46-16-85-49-118c-33-33-72-49-118-49c-46 0-85 16-118 49c-33 33-49 72-49 118l0 333c0 46-16 85-48 117c-33 32-71 48-116 48c-44 0-83-16-116-48c-33-32-49-71-49-117l0-333c0-46-16-85-49-118c-33-33-72-49-118-49c-46 0-86 16-118 49c-33 33-50 72-50 118l0 333c0 138 49 256 147 353c98 98 216 147 353 147c138 0 256-49 353-147c97-97 145-215 145-353l0-333z m1093 666c0-46-16-86-49-118c-33-33-72-50-118-50l-359 0c-52 0-93-19-122-57c-22-34-44-69-67-104c-30-38-71-57-124-57c-46 0-85 16-118 49c-33 33-49 72-49 118c0 19 3 38 10 57c33 97 93 176 182 238c89 61 185 91 288 91l359 0c46 0 85-16 118-49c33-33 49-72 49-118z m-2-447c0-20-3-39-10-57c-34-97-95-176-182-238c-87-61-183-91-286-91l-359 0c-46 0-85 16-118 49c-33 33-49 72-49 118c0 46 16 86 49 118c33 33 72 50 118 50l359 0c72 0 123 36 153 109c30 73 83 109 158 109c46 0 85-16 118-49c33-33 49-72 49-118z m1079 115c0-138-49-256-146-354c-97-98-215-147-352-147c-138 0-256 49-354 147c-97 98-146 216-146 354c0 138 49 256 146 353c98 97 216 146 354 146c137 0 255-49 352-146c97-97 146-215 146-353z m-335 0c0 46-16 85-47 117c-32 32-70 47-116 47c-46 0-85-16-117-48c-33-32-49-71-49-116c0-45 17-84 50-117c32-33 71-49 116-49c44 0 83 16 115 48c32 32 48 72 48 118z m1419 332c0-46-16-86-49-118c-33-33-72-50-118-50l-358 0c-53 0-93-19-122-57c-23-34-45-69-67-104c-30-38-72-57-124-57c-46 0-86 16-118 49c-33 33-50 72-50 118c0 19 4 38 10 57c33 97 94 176 182 238c89 61 185 91 289 91l358 0c46 0 85-16 118-49c33-33 49-72 49-118z m-2-447c0-20-3-39-9-57c-35-97-95-176-183-238c-87-61-182-91-286-91l-358 0c-46 0-86 16-118 49c-33 33-50 72-50 118c0 46 17 86 50 118c32 33 72 50 118 50l358 0c72 0 123 36 154 109c30 73 82 109 157 109c46 0 85-16 118-49c33-33 49-72 49-118z" horiz-adv-x="6421" />
<glyph glyph-name="attach" unicode="&#xe802;" d="m452 746c-26 0-47-21-47-47l0-667c0-19-13-41-36-59c-21-17-92-29-120-29c-28 0-98 13-120 30c-22 17-35 39-35 58l0 636c0 28 7 49 20 63c12 13 69 23 112 25c20-2 24-6 31-16c8-14 13-41 13-72l0-406c0-48-4-68-8-76c-3-6-5-7-7-8c-2-2-6-3-10-4c-8 1-10 1-10 2c-1 0-1 1-2 2c-1 2-5 16-4 50l0 16l0 18l0 281c0 26-21 47-47 47c-26 0-47-21-47-47l0-281l0-17l0-19c0-32 0-61 15-91c14-31 46-51 86-55l6 0l4 0l2 0l1 0l2 0l0 0c21 2 38 8 54 17c26 17 44 43 52 79c6 28 7 59 7 86l0 406c0 35-3 80-25 119c-18 32-50 54-87 60c-5 2-11 3-16 3l-5 0l-4 0l-5 0l-13 0c-6 0-12-1-17-3c-22-3-115-19-146-51c-30-32-46-76-46-128l0-636c0-50 26-97 71-133c42-32 130-49 178-49l0 0c47 0 138 18 179 50c45 35 71 82 71 132l0 667c0 26-21 47-47 47z" horiz-adv-x="499" />
<glyph glyph-name="delete_folder" unicode="&#xe803;" d="m1118 709l-618 0c0 0-29 141-97 141c-74 0-297 0-297 0c-56 0-102-45-102-101l0-256c52 38 116 60 185 60l1030 0l0 54c0 56-45 102-101 102z m-1118-434l0-324c0-56 45-101 101-101l1013 0c56 0 101 45 101 101l0 462l-1030 0c-88 0-161-58-185-138z m292 17l0 0l63-62l62 62c25 25 65 25 90 0l18-18c24-24 24-65 0-89l-63-63l63-62c24-25 24-65 0-90l-18-18c-25-25-65-25-90 0l-62 63l-63-63c-25-25-65-25-90 0l-17 18c-25 25-25 65-1 90l63 62l-63 63c-24 24-24 65 1 89l17 18c25 25 65 25 90 0z" horiz-adv-x="1219" />
<glyph glyph-name="add_folder" unicode="&#xe804;" d="m1129 706l-629 0c0 0-30 144-98 144c-76 0-296 0-296 0c-60 0-106-45-106-106l0-258c53 38 121 61 189 61l1046 0l0 53c0 61-46 106-106 106z m-1129-424l0-334c0-53 46-98 106-98l1023 0c60 0 106 45 106 98l0 470l-1046 0c-90 0-166-60-189-136z m318-83l0 0l0 90c0 38 23 69 61 69l23 0c37 0 68-31 68-69l0-90l91 0c30 0 60-23 60-61l0-23c0-38-30-68-60-68l-91 0l0-91c0-38-31-61-68-61l-23 0c-38 0-61 23-61 61l0 91l-91 0c-38 0-68 30-68 68l0 23c0 38 30 61 68 61l91 0z" horiz-adv-x="1235" />
<glyph glyph-name="download_file" unicode="&#xe805;" d="m938-103c0-26-22-47-47-47l-844 0c-26 0-47 21-47 47l0 47c0 25 21 47 47 47l844 0c25 0 47-22 47-47l0-47z m-920 559l401-389c27-19 72-19 100 0l401 389c27 19 22 35-11 35l-292 0l0 321c0 21-17 38-39 38l-219 0c-21 0-38-17-38-38l0-321l-292 0c-34 0-39-16-11-35z" horiz-adv-x="938" />
<glyph glyph-name="edit_folder" unicode="&#xe806;" d="m201 413l1026 0l0-463c0-55-46-100-101-100l-1026 0c-55 0-100 45-100 100l0 263c0 110 90 200 201 200z m311-186l-109 109c-11 11-29 11-40 0l-190-190c14-30 34-60 62-87c27-28 57-48 87-62l190 190c11 11 11 29 0 40z m-50-36l0 0l-28-27c-7-7-18-7-25 0l-69 69c-7 7-7 18 0 25l27 28c7 7 19 7 26 0l69-69c7-7 7-19 0-26z m-321-77c0 0 0 0 0-1c-1 0-1-1-2-2c0-1-1-2-1-3c0 0 0 0-1-1c0-1 0-3-1-4c0 0 0 0 0-1c0 0 0-1 0-2l-13-132c-1-13 8-23 21-21l132 13c1 0 2 0 2 0c1 0 1 0 1 0c1 0 3 1 4 1c1 0 1 1 2 1c1 0 1 1 2 1c1 1 2 1 2 2c1 0 1 0 1 0c-30 16-59 37-85 64c-27 26-48 55-64 85z m982 594l-621 0c0 0-29 142-97 142c-75 0-299 0-299 0c-56 0-101-45-101-102l0-256c52 37 116 59 185 59l1034 0l0 56c0 56-45 101-101 101z" horiz-adv-x="1227" />
<glyph glyph-name="move_folder" unicode="&#xe807;" d="m1113 709l-618 0c0 0-29 141-97 141c-74 0-297 0-297 0c-56 0-101-45-101-101l0-255c52 37 116 59 185 59l1029 0l0 55c0 56-46 101-101 101z m-910-298l1021 0l0-461c0-55-44-100-99-100l-1021 0c-55 0-100 45-100 100l0 261c0 110 89 200 199 200z m188-467l155 161c7 11 7 29 0 40l-155 161c-8 11-14 9-14-5l0-117l-259 0c-9 0-15-6-15-15l0-88c0-8 6-15 15-15l259 0l0-117c0-14 6-16 14-5z" horiz-adv-x="1224" />
<glyph glyph-name="next_track" unicode="&#xe808;" d="m835 406l-454 428c-39 31-72 15-72-34l0-189l-237 223c-40 31-72 15-72-34l0-900c0-49 32-65 72-34l237 224l0-190c0-49 33-65 72-34l454 429c39 30 39 80 0 111z" horiz-adv-x="864" />
<glyph glyph-name="move_file" unicode="&#xe809;" d="m812 671l135 0l-170 170l0-135c0-9 4-18 10-24c7-7 15-11 25-11z m-120-184l-153 0c-23 0-44 9-59 24c-15 15-24 36-24 59l0 155l-279 0c-33 0-61-27-61-60l0-234l576 0l0 56z m262-156c0 0 0 0 0 0l-886 0c-39-8-68-42-68-83l106-313c0-47 39-85 86-85l638 0c47 0 85 38 85 85l106 313c0 41-29 75-67 83z m-454-309l0 0c18-18 23-43 5-62c-19-18-43-13-62 5l-76 77c-44-62-70-111-70-111l-71 308l308-71c0 0-49-27-111-70l77-76z m-14 737c5 2 10 3 15 3c12 0 23-5 32-14l185-184c13-13 17-32 10-49c6-8 10-18 10-28l0-56l216 0l0 180l-154 0c-23 0-44 10-59 25c-15 15-24 36-24 58l0 156l-278 0c-34 0-61-27-61-60l0-19l78 0c11 0 22-5 30-12z m27-180c0-9 4-18 10-25c7-6 16-10 26-10l137 0l-173 172l0-137z" horiz-adv-x="1021" />
<glyph glyph-name="file" unicode="&#xe80a;" d="m0 848l862 2l278-229l-6-771l-1134 0l0 998z m1140-227l-278 229l0-229l278 0z" horiz-adv-x="1140" />
<glyph glyph-name="for_peoples" unicode="&#xe80b;" d="m955 850c109 0 198-100 198-224c0-124-89-225-198-225c-110 0-199 101-199 225c0 124 89 224 199 224z m-158-453c71-94 269-95 325 0c65 109 242-102 242-227l0-211l-499-8l-2 139c-2 105-125 271-204 257c55 85 88 115 138 50z m-555-109c72-94 270-95 326 0c64 110 242-102 242-227l0-211l-810 0l0 211c0 125 165 329 242 227z m166 449c109 0 198-100 198-224c0-124-89-224-198-224c-110 0-199 100-199 224c0 124 89 224 199 224z" horiz-adv-x="1364" />
<glyph glyph-name="play" unicode="&#xe80c;" d="m0 800c0 49 32 65 71 35l546-429c39-31 39-81 0-111l-546-429c-39-31-71-15-71 34l0 900z" horiz-adv-x="646" />
<glyph glyph-name="prev_track" unicode="&#xe80d;" d="m792 834l-236-224l0 190c0 49-33 65-73 34l-453-428c-40-31-40-81 0-112l453-428c40-31 73-15 73 34l0 190l236-224c40-31 72-15 72 34l0 900c0 49-32 65-72 34z" horiz-adv-x="864" />
<glyph glyph-name="for_work" unicode="&#xe80e;" d="m870 192c23 53 72 86 126 92c5 36 5 73 2 109c-60 1-117 37-141 97c-24 60-7 126 37 168c-23 29-49 56-78 79c-43-36-105-48-160-24c-56 24-90 77-94 133c-45 6-91 5-135-1c-8-53-42-101-96-122c-49-20-104-12-145 16c-27-22-52-47-75-74c34-43 44-103 21-157c-23-54-73-88-128-93c-5-41-5-82-1-122c52-8 99-43 120-95c21-52 11-109-21-151c25-32 53-62 86-88c42 32 100 41 152 18c52-22 86-70 92-122c47-7 93-6 138 0c12 45 45 84 92 103c45 18 95 13 134-11c35 26 67 56 94 90c-33 43-42 102-20 155z m-447-23c-100 43-146 158-103 258c42 99 158 145 257 102c100-42 146-157 103-257c-43-99-158-145-257-103z" horiz-adv-x="1000" />
<glyph glyph-name="private_folder" unicode="&#xe80f;" d="m938 600l-407 0l-83 0l-385 0l0 188l363 0l59-98l13-27l33 0l407 0l0-63z m0-688l-875 0l0 626l385 0l83 0l407 0l0-626z m-490 938l-448 0l0-250l0-62l0-688l1000 0l0 688l0 62l0 125l-469 0l-83 125z m-248-729l0 57c0 11 9 19 19 19c11 0 19-8 19-19l0-57l-38 0z m38-114l-38 0l11 41c-6 3-11 9-11 16c0 11 9 19 19 19c11 0 19-8 19-19c0-7-4-13-10-16l10-41z m38 171c0 32-25 57-57 57c-31 0-57-25-57-57l0-57l-38 0l0-152l190 0l0 152l-38 0l0 57z" horiz-adv-x="1000" />
<glyph glyph-name="delete_file" unicode="&#xe801;" d="m3143 850l-929 0l-1000 0l-928 0c-158 0-286-128-286-286l0-428c0-158 128-286 286-286l928 0l1000 0l929 0c157 0 285 128 285 286l0 428c0 158-128 286-285 286z" horiz-adv-x="3428" />
<glyph glyph-name="for_files" unicode="&#xe811;" d="m32-40c0 8 7 24 7 40l119 519c23 95 118 174 212 181l961 0c-32 40-79 71-134 71l-630 0c-32 48-87 79-142 79l-252 0c-94 0-173-79-173-173l0-685c0-8 0-8 0-8c8-47 32-103 87-134c-32 24-48 63-55 110z m1464 638c-16 16-31 24-55 24l-1063 0c-63 0-126-55-142-118l-118-520c-8-32-8-47 8-63c8-16 24-24 47-24l1048 0c63 0 133 55 149 118l134 528c0 24 0 39-8 55z" horiz-adv-x="1504" />
<glyph glyph-name="public_folder" unicode="&#xe812;" d="m936 603l-409 0l-75 0l-387 0l0 183l365 0l54-97l11-22l32 0l409 0l0-64z m0-689l-871 0l0 624l387 0l75 0l409 0l0-624z m-484 936l-452 0l0-247l0-65l0-688l1000 0l0 688l0 65l0 118l-473 0l-75 129z" horiz-adv-x="1000" />
<glyph glyph-name="search" unicode="&#xe813;" d="m181-137c-30-31-109-1-139 29c-30 30-59 109-29 139l245 245c30 31 108 1 138-29c31-30 60-109 30-139l-245-245z m168 656c0 183 148 331 331 331c182 0 330-148 330-331c0-183-148-331-330-332c-183 1-331 149-331 332z m172 0l0 0c0-100 59-159 159-159c99 0 158 59 158 159c0 99-59 159-158 159c-100 0-159-60-159-159z" horiz-adv-x="1010" />
<glyph glyph-name="public_files_count" unicode="&#xe814;" d="m546 828l0-184c0-13 6-24 14-33c9-9 20-14 34-14l183 0l-231 231z m240-300l-207 0c-27 0-53 11-72 30c-19 19-30 45-30 72l0 210l0 10l-10 0l-375 0c-51 0-92-41-92-92l0-816c0-51 41-92 92-92l612 0c51 0 92 41 92 92l0 576l0 10l-10 0z m-683 189l0 0c0 8 3 15 9 21c6 6 13 9 22 9l240 0l0-159c0-43 18-85 48-115c30-31 72-48 116-48l155 0l0-442c0-16-14-30-30-30l-529 0c-17 0-31 14-31 30l0 734z" horiz-adv-x="796" />
<glyph glyph-name="sound" unicode="&#xe815;" d="m867 653c-22 22-46 41-71 57c-34 22-79 12-101-22c-22-34-12-79 21-101c17-10 33-23 47-37c111-112 110-292-2-405c-13-13-27-24-41-34c-34-22-42-68-19-101c2-4 5-7 8-10c24-24 63-29 92-9c22 16 43 33 62 52c169 170 171 443 4 610z m-362 182l-208-257l0 67c0 23-19 42-41 42l-32 0l-31 0l-152 0c-22 0-41-19-41-42l0-590c0-23 19-42 41-42l152 0l31 0l32 0c22 0 41 19 41 42l0 67l208-257c37-29 68-14 68 33l0 904c0 47-31 62-68 33z" horiz-adv-x="992" />
<glyph glyph-name="stop" unicode="&#xe816;" d="m773 850l-64 0l-61 0l-565 0c-46 0-83-37-83-83l0-834c0-46 37-83 83-83l565 0l61 0l64 0c46 0 84 37 84 83l0 834c0 46-38 83-84 83z" horiz-adv-x="857" />
<glyph glyph-name="settings" unicode="&#xe817;" d="m990 351l-3 46c-1 14-7 26-15 35c-8 9-18 14-29 14c-3 0-5 0-8-1l-93-18c-7 31-18 60-32 88l84 46c14 7 20 22 20 37c0 10-3 22-10 32c-18 27-38 51-60 74c-12 12-27 17-40 17c-12 0-23-4-30-13l-61-74c-26 20-55 37-85 50l35 89c2 4 3 9 3 13c-1 11-4 20-11 29c-7 8-17 14-29 18c-31 8-62 14-93 17c-2 0-3 0-4 0c-14 0-27-4-37-11c-9-7-15-18-15-30c0-1 0-1 0-2l0-95c-35-1-71-8-104-19l-33 90c-6 17-23 26-42 26c-8 0-17-2-26-6c-11-6-23-11-35-19c0 0 0 0 0 0c-12-8-27-15-40-25c-15-11-24-27-24-43c0-10 3-19 10-26l62-72c-24-21-44-45-61-71l-81 50c-6 3-13 5-19 5c-19 0-37-11-46-32c-14-28-25-58-33-89c-2-5-3-11-3-16c0-23 13-43 35-46l93-16c-2-17-3-34-3-51c0-16 1-32 3-47l-95-14c-10-2-19-8-25-16c-6-8-10-19-10-31c0-5 1-10 2-16c8-30 18-60 32-89c9-20 27-32 45-33c7 0 13 2 19 6l83 48c18-30 41-58 68-82l-61-73c-6-7-9-15-9-24c0-16 9-32 25-44l33-21l0 0c14-9 29-15 43-22c8-4 17-6 25-6c19 0 36 10 42 27l31 91c30-9 60-16 92-17l-2-96c0 0 0 0 0-1c0-13 6-23 15-30c9-8 21-12 35-12c1 0 3 0 5 0c31 2 63 7 94 16c12 2 22 9 29 17c7 8 11 18 11 28c0 5-1 9-2 13l-33 90c30 12 59 28 85 48l60-75c7-9 18-14 30-14c0 0 0 0 0 0c14 0 28 6 39 17c23 22 44 46 62 72c8 11 11 22 11 33c0 15-6 30-19 37l-83 47c17 31 29 65 36 100l94-17c2 0 4 0 6 0c23 0 43 21 45 49l2 39l-9 0l9 1z m-495-202l0 0c-111 0-201 90-201 201c0 111 90 201 201 201c111 0 201-90 201-201c0-111-90-201-201-201z m0 324c-68 0-123-55-123-123c0-68 55-123 123-123c68 0 123 55 123 123c0 68-55 123-123 123z" horiz-adv-x="990" />
<glyph glyph-name="upload_file" unicode="&#xe818;" d="m917 496l-271 0l0 271c0 46-37 83-83 83l-125 0c-46 0-84-37-84-83l0-271l-271 0c-46 0-83-37-83-83l0-125c0-47 37-84 83-84l271 0l0-271c0-46 38-83 84-83l125 0c46 0 83 37 83 83l0 271l271 0c46 0 83 37 83 84l0 125c0 46-37 83-83 83z" horiz-adv-x="1000" />
<glyph glyph-name="private_files_count" unicode="&#xe819;" d="m546 828l0-184c0-13 6-24 14-33c9-9 20-14 34-14l183 0l-231 231z m-309-666l0 52c0 10 8 18 18 18c9 0 17-8 17-18l0-52l-35 0z m35-105l-35 0l10 37c-6 3-10 9-10 15c0 10 8 18 18 18c9 0 17-8 17-18c0-6-4-12-9-15l9-37z m35 157c0 29-23 53-52 53c-29 0-53-24-53-53l0-52l-35 0l0-140l175 0l0 140l-35 0l0 52z m479 314l-207 0c-27 0-53 11-72 30c-19 19-30 45-30 72l0 210l0 10l-10 0l-375 0c-51 0-92-41-92-92l0-816c0-51 41-92 92-92l612 0c51 0 92 41 92 92l0 576l0 10l-10 0z m-683 189l0 0c0 8 3 15 9 21c6 6 13 9 22 9l240 0l0-159c0-43 18-85 48-115c30-31 72-48 116-48l155 0l0-442c0-16-14-30-30-30l-529 0c-17 0-31 14-31 30l0 734z" horiz-adv-x="796" />
<glyph glyph-name="fullscreen_file" unicode="&#xe81a;" d="m894 322l0-324l-746 0l0 572l519 0c3 4 6 8 9 12l138 137l-727 0c-48 0-87-39-87-87l0-695c0-48 39-87 87-87l869 0c48 0 86 39 86 87l0 527l-124-124c-7-7-15-13-24-18z m287 488c-3 16-18 32-34 34l-271 5c-16 3-19-4-8-15l100-100l-221-222c-8-7-8-19 0-27l75-75c7-7 19-7 26 0l222 222l100-100c12-12 19-8 16 8l-5 270z" horiz-adv-x="1187" />
<glyph glyph-name="repeat" unicode="&#xe81b;" d="m60 474l10 18l16-15l84-86l8-7l-4-11c-18-36-26-73-26-112c0-145 118-263 263-263c145 0 263 118 263 263c0 136-105 249-239 262l0-145c0-21-10-28-22-15l-206 217c-12 12-12 34 0 47l206 216c12 13 22 7 22-14l0-158c215-13 387-193 387-410c0-227-184-411-411-411c-110 0-213 43-291 121c-78 77-120 181-120 290c0 75 21 148 60 213z" horiz-adv-x="822" />
<glyph glyph-name="filter" unicode="&#xe81c;" d="m937 203l191 218l376 429l-752 0l-752 0l376-429l189-216l-2 0l0-355l374 0z" horiz-adv-x="1504" />
<glyph glyph-name="show_lines" unicode="&#xe81d;" d="m938-96c0-30-22-54-47-54l-844 0c-26 0-47 24-47 54l0 54c0 30 21 54 47 54l844 0c25 0 47-24 47-54l0-54z m0 289c0-30-22-55-47-55l-844 0c-26 0-47 25-47 55l0 54c0 29 21 54 47 54l844 0c25 0 47-25 47-54l0-54z m0 279c0-30-22-54-47-54l-844 0c-26 0-47 24-47 54l0 54c0 30 21 54 47 54l844 0c25 0 47-24 47-54l0-54z m0 270c0-30-22-54-47-54l-844 0c-26 0-47 24-47 54l0 54c0 30 21 54 47 54l844 0c25 0 47-24 47-54l0-54z" horiz-adv-x="938" />
<glyph glyph-name="show_cells" unicode="&#xe81e;" d="m580 14l315 0c28 0 51-23 51-51l0-62c0-28-23-51-51-51l-315 0c-28 0-51 23-51 51l0 62c0 28 23 51 51 51z m-529 0l315 0c28 0 51-23 51-51l0-62c0-28-23-51-51-51l-315 0c-28 0-51 23-51 51l0 62c0 28 23 51 51 51z m0 282l315 0c28 0 51-23 51-51l0-62c0-28-23-51-51-51l-315 0c-28 0-51 23-51 51l0 62c0 28 23 51 51 51z m529 0l315 0c28 0 51-23 51-51l0-62c0-28-23-51-51-51l-315 0c-28 0-51 23-51 51l0 62c0 28 23 51 51 51z m0 281l315 0c28 0 51-22 51-50l0-62c0-28-23-51-51-51l-315 0c-28 0-51 23-51 51l0 62c0 28 23 50 51 50z m-529 0l315 0c28 0 51-22 51-50l0-62c0-28-23-51-51-51l-315 0c-28 0-51 23-51 51l0 62c0 28 23 50 51 50z m0 273l315 0c28 0 51-23 51-51l0-62c0-28-23-51-51-51l-315 0c-28 0-51 23-51 51l0 62c0 28 23 51 51 51z m529 0l315 0c28 0 51-23 51-51l0-62c0-28-23-51-51-51l-315 0c-28 0-51 23-51 51l0 62c0 28 23 51 51 51z" horiz-adv-x="946" />
<glyph glyph-name="track" unicode="&#xe81f;" d="m303 103c-7-27-39-44-75-40c-29 3-64 25-55 58c6 26 40 43 74 39c28-3 64-25 56-57z m207 77c-4 32 32 51 62 53c33 2 67-18 70-45c4-32-31-51-61-53c-33-2-67 17-71 45z m-152 235c-1 7 0 40 0 50c0 15-5 10 33 18l169 37c28 5 57 13 85 18l0-62l-287-61z m-238-293l0-21c3-7 3-35 35-61c34-28 62-25 70-29l27 0c1 0 0 0 2 1c4 1 14 2 22 4c21 6 41 18 54 33c26 29 25 45 26 92c0 77-1 156 2 233c3 3 211 46 249 54c12 3 25 6 37 8l-1-169c-18 6-19 12-48 16c-51 8-107-16-128-62c-17-35-6-73 14-96c55-65 178-53 208 30c7 19 5 38 5 59l2 191c0 4-1 59 1 64l0 107l-1 2c-2 3-3 7-7 10c-4 5-9 5-12 8l-12 0c-4-3-138-31-155-34c-53-12-105-23-157-34c-40-9-46-6-46-49l-2-284c-5 1-8 3-13 5c-33 16-73 16-106 2c-29-13-53-35-62-65c-2-4-2-11-4-15z m-120 726l680 2l220-229l-5-771l-895 0l0 998z m898-227l-218 229l0-229l218 0z" horiz-adv-x="900" />
<glyph glyph-name="nonsos" unicode="&#xe810;" d="m9 12l389 302l64-49l-416-325c16-21 33-37 52-50l422 329l71-55l-399-311c6-3 50-3 114-3l344 268l70-55l-273-213l117 0l214 168l143-112c17 15 32 33 45 54l-952 742c-10-24-15-49-14-77l340-265l-340-265c-1-39 2-58 9-83z m989 516l-412 322l-117 0l529-412l0 90z m0-190l-657 512l-117 0l774-602l0 90z m0-203l-880 687c-22-12-42-27-58-45l936-729c4 17 1 58 2 87z" horiz-adv-x="998" />
</font>
</defs>
</svg>
