<?xml version="1.0" encoding="UTF-8"?>
<!DOCTYPE svg PUBLIC "-//W3C//DTD SVG 1.1//EN" "http://www.w3.org/Graphics/SVG/1.1/DTD/svg11.dtd">
<!-- Creator: CorelDRAW X6 -->
<svg xmlns="http://www.w3.org/2000/svg" xml:space="preserve" width="3.0874mm" height="2.5085mm" version="1.1" style="shape-rendering:geometricPrecision; text-rendering:geometricPrecision; image-rendering:optimizeQuality; fill-rule:evenodd; clip-rule:evenodd"
viewBox="0 0 163 132"
 xmlns:xlink="http://www.w3.org/1999/xlink">
 <defs>
  <style type="text/css">
   <![CDATA[
    .fil0 {fill:#FEFEFE;fill-rule:nonzero}
   ]]>
  </style>
 </defs>
 <g id="Layer_x0020_1">
  <metadata id="CorelCorpID_0Corel-Layer"/>
  <path class="fil0" d="M149 19l-83 0c0,0 -4,-19 -13,-19 -10,0 -39,0 -39,0 -8,0 -14,6 -14,14l0 34c7,-5 16,-8 25,-8l138 0 0 -7c0,-8 -6,-14 -14,-14zm-149 56l0 44c0,7 6,13 14,13l135 0c8,0 14,-6 14,-13l0 -62 -138 0c-12,0 -22,8 -25,18zm42 11l0 0 0 -12c0,-5 3,-9 8,-9l3 0c5,0 9,4 9,9l0 12 12 0c4,0 8,3 8,8l0 3c0,5 -4,9 -8,9l-12 0 0 12c0,5 -4,8 -9,8l-3 0c-5,0 -8,-3 -8,-8l0 -12 -12 0c-5,0 -9,-4 -9,-9l0 -3c0,-5 4,-8 9,-8l12 0z"/>
 </g>
</svg>
