<?xml version="1.0" encoding="UTF-8"?>
<!DOCTYPE svg PUBLIC "-//W3C//DTD SVG 1.1//EN" "http://www.w3.org/Graphics/SVG/1.1/DTD/svg11.dtd">
<!-- Creator: CorelDRAW X6 -->
<svg xmlns="http://www.w3.org/2000/svg" xml:space="preserve" width="1139px" height="919px" version="1.1" style="shape-rendering:geometricPrecision; text-rendering:geometricPrecision; image-rendering:optimizeQuality; fill-rule:evenodd; clip-rule:evenodd"
viewBox="0 0 9555107 7704338"
 xmlns:xlink="http://www.w3.org/1999/xlink">
 <defs>
  <style type="text/css">
   <![CDATA[
    .str0 {stroke:black;stroke-width:245716}
    .fil0 {fill:none}
   ]]>
  </style>
 </defs>
 <g id="Слой_x0020_1">
  <metadata id="CorelCorpID_0Corel-Layer"/>
  <path class="fil0 str0" d="M2521321 122863l4621412 0c356496,0 643503,287007 643503,643503l0 6171606c0,356495 -287007,643503 -643503,643503l-4621412 0m0 -7458612l0 0 0 0zm-1754985 0l4621412 0c355377,0 643533,288146 643533,643503l-30 6171606c30,355346 -288116,643512 -643473,643503l-4621452 0c-355307,0 -643463,-288147 -643463,-643503l0 -6171606c0,-355347 288146,-643503 643503,-643503l-30 0zm3401003 0l4621402 0c356496,0 643503,287007 643503,643513l0 6171596c0,356495 -287007,643503 -643503,643503l-4621402 0m0 -7458612l0 0 0 0z"/>
 </g>
</svg>
