<?xml version="1.0" encoding="UTF-8"?>
<!DOCTYPE svg PUBLIC "-//W3C//DTD SVG 1.1//EN" "http://www.w3.org/Graphics/SVG/1.1/DTD/svg11.dtd">
<!-- Creator: CorelDRAW X6 -->
<svg xmlns="http://www.w3.org/2000/svg" xml:space="preserve" width="21px" height="42px" version="1.1" style="shape-rendering:geometricPrecision; text-rendering:geometricPrecision; image-rendering:optimizeQuality; fill-rule:evenodd; clip-rule:evenodd"
viewBox="0 0 4227 8476"
 xmlns:xlink="http://www.w3.org/1999/xlink">
 <defs>
  <style type="text/css">
   <![CDATA[
    .fil0 {fill:#4D4D4D;fill-rule:nonzero}
   ]]>
  </style>
 </defs>
 <g id="Layer_x0020_1">
  <metadata id="CorelCorpID_0Corel-Layer"/>
  <path class="fil0" d="M3828 879c-220,0 -399,179 -399,398l0 5656c1,165 -108,346 -298,496 -183,144 -780,250 -1022,250 -232,0 -833,-108 -1014,-251 -190,-149 -299,-330 -298,-497l0 -5386c1,-239 57,-419 169,-535 103,-107 587,-197 948,-211 168,11 208,49 266,138 68,114 108,341 108,607l0 3440c2,403 -37,573 -71,645 -24,52 -41,63 -53,70 -23,14 -58,25 -85,29 -67,-5 -85,-10 -89,-12 -3,-2 -9,-12 -12,-16 -12,-22 -44,-142 -41,-425l0 -136 1 -156 0 -2378c0,-220 -179,-399 -398,-399 -219,0 -398,179 -398,399l0 2378 -1 146 -1 161c3,267 5,520 128,771 120,259 390,433 733,467l50 0 31 0 18 0 12 0 12 -3 5 -2c172,-16 324,-65 453,-144 224,-137 372,-361 442,-665 56,-240 61,-503 61,-731l0 -3439c-1,-296 -26,-678 -216,-1008 -150,-270 -422,-458 -734,-512 -43,-16 -89,-24 -136,-24l-42 1 -34 0 -39 -1 -115 0c-48,0 -97,9 -143,27 -184,27 -974,157 -1236,432 -256,268 -391,643 -390,1085l0 5389c1,421 216,820 603,1124 351,272 1102,418 1510,419l1 0c397,-1 1163,-151 1510,-420 387,-304 601,-703 603,-1125l0 -5654c0,-219 -179,-398 -399,-398z"/>
 </g>
</svg>
