<?xml version="1.0" encoding="UTF-8"?>
<!DOCTYPE svg PUBLIC "-//W3C//DTD SVG 1.1//EN" "http://www.w3.org/Graphics/SVG/1.1/DTD/svg11.dtd">
<!-- Creator: CorelDRAW X6 -->
<svg xmlns="http://www.w3.org/2000/svg" xml:space="preserve" width="37px" height="30px" version="1.1" style="shape-rendering:geometricPrecision; text-rendering:geometricPrecision; image-rendering:optimizeQuality; fill-rule:evenodd; clip-rule:evenodd"
viewBox="0 0 152321 124921"
 xmlns:xlink="http://www.w3.org/1999/xlink">
 <defs>
  <style type="text/css">
   <![CDATA[
    .fil0 {fill:#FEFEFE;fill-rule:nonzero}
   ]]>
  </style>
 </defs>
 <g id="Layer_x0020_1">
  <metadata id="CorelCorpID_0Corel-Layer"/>
  <path class="fil0" d="M139671 17660l-77183 0c0,0 -3693,-17660 -12124,-17660 -9292,0 -37188,0 -37188,0 -6991,0 -12645,5664 -12645,12650l0 31903c6519,-4641 14474,-7395 23092,-7395l128698 0 0 -6848c0,-6986 -5659,-12650 -12650,-12650zm-139671 54115l0 40496c0,6996 5654,12650 12645,12650l126495 0c6991,0 12650,-5654 12650,-12650l0 -57709 -128698 0c-10919,20 -20118,7262 -23092,17213zm36455 -2099l0 0 7827 7826 7827 -7826c3078,-3083 8097,-3083 11185,4l2227 2232c3083,3088 3088,8108 5,11185l-7817 7827 7817 7817c3092,3088 3092,8117 10,11200l-2237 2232c-3083,3083 -8112,3078 -11190,-5l-7827 -7827 -7827 7827c-3073,3078 -8097,3078 -11180,-10l-2232 -2232c-3082,-3082 -3082,-8102 -10,-11180l7827 -7822 -7827 -7827c-3072,-3077 -3082,-8097 10,-11185l2227 -2232c3088,-3087 8112,-3087 11185,-4z"/>
 </g>
</svg>
