<?xml version="1.0" encoding="UTF-8"?>
<!DOCTYPE svg PUBLIC "-//W3C//DTD SVG 1.1//EN" "http://www.w3.org/Graphics/SVG/1.1/DTD/svg11.dtd">
<!-- Creator: CorelDRAW X6 -->
<svg xmlns="http://www.w3.org/2000/svg" xml:space="preserve" width="28px" height="30px" version="1.1" style="shape-rendering:geometricPrecision; text-rendering:geometricPrecision; image-rendering:optimizeQuality; fill-rule:evenodd; clip-rule:evenodd"
viewBox="0 0 23968 25565"
 xmlns:xlink="http://www.w3.org/1999/xlink">
 <defs>
  <style type="text/css">
   <![CDATA[
    .fil0 {fill:#FEFEFE;fill-rule:nonzero}
   ]]>
  </style>
 </defs>
 <g id="Layer_x0020_1">
  <metadata id="CorelCorpID_0Corel-Layer"/>
  <path class="fil0" d="M23968 24366c0,660 -540,1199 -1199,1199l-21570 0c-659,0 -1199,-539 -1199,-1199l0 -1197c0,-659 540,-1199 1199,-1199l21570 0c659,0 1199,540 1199,1199l0 1197zm-23513 -14288l10248 9928c704,490 1856,490 2562,0l10246 -9928c706,-490 579,-893 -282,-893l-7456 0 0 -8202c0,-543 -443,-983 -989,-983l-5600 0c-547,0 -988,440 -988,983l0 8202 -7458 0c-860,0 -987,403 -283,893z"/>
 </g>
</svg>
