<?xml version="1.0" encoding="UTF-8"?>
<!DOCTYPE svg PUBLIC "-//W3C//DTD SVG 1.1//EN" "http://www.w3.org/Graphics/SVG/1.1/DTD/svg11.dtd">
<!-- Creator: CorelDRAW X6 -->
<svg xmlns="http://www.w3.org/2000/svg" xml:space="preserve" width="37px" height="30px" version="1.1" style="shape-rendering:geometricPrecision; text-rendering:geometricPrecision; image-rendering:optimizeQuality; fill-rule:evenodd; clip-rule:evenodd"
viewBox="0 0 9460 7713"
 xmlns:xlink="http://www.w3.org/1999/xlink">
 <defs>
  <style type="text/css">
   <![CDATA[
    .fil0 {fill:white}
   ]]>
  </style>
 </defs>
 <g id="Layer_x0020_1">
  <metadata id="CorelCorpID_0Corel-Layer"/>
  <path class="fil0" d="M1547 3368l7913 0 0 3571c0,426 -348,774 -773,774l-7913 0c-426,0 -774,-348 -774,-774l0 -2024c0,-851 696,-1547 1547,-1547zm2404 1440l-845 -845c-85,-85 -222,-84 -307,0l-1467 1467c107,231 268,464 478,674 210,211 444,371 674,478l1467 -1466c84,-86 84,-223 0,-308zm-388 273l0 0 -213 212c-54,54 -141,54 -194,1l-536 -535c-53,-54 -53,-141 0,-195l213 -213c54,-54 141,-53 195,0l535 535c53,54 53,141 0,195zm-2473 595c-2,2 -3,4 -5,6 -4,6 -6,11 -10,16 -4,7 -8,15 -11,22 -2,3 -3,7 -4,11 -4,11 -7,21 -10,33 0,0 0,1 -1,3 -1,6 -2,12 -3,18l-99 1015c-10,102 65,177 167,167l1015 -99c6,0 13,-2 18,-3 2,0 3,-1 4,-1 11,-2 22,-6 32,-9 4,-2 7,-3 11,-5 8,-3 14,-7 22,-11 5,-3 11,-6 16,-10 2,-2 4,-3 6,-5 -230,-121 -454,-285 -659,-490 -204,-205 -368,-428 -489,-658zm7568 -4582l-4783 0c0,0 -229,-1094 -751,-1094 -576,0 -2305,0 -2305,0 -433,0 -784,351 -784,784l0 1977c404,-288 897,-458 1431,-458l7976 0 0 -425c0,-433 -351,-784 -784,-784z"/>
 </g>
</svg>
