<?xml version="1.0" encoding="UTF-8"?>
<!DOCTYPE svg PUBLIC "-//W3C//DTD SVG 1.1//EN" "http://www.w3.org/Graphics/SVG/1.1/DTD/svg11.dtd">
<!-- Creator: CorelDRAW X6 -->
<svg xmlns="http://www.w3.org/2000/svg" xml:space="preserve" width="53px" height="53px" version="1.1" style="shape-rendering:geometricPrecision; text-rendering:geometricPrecision; image-rendering:optimizeQuality; fill-rule:evenodd; clip-rule:evenodd"
viewBox="0 0 18249 18249"
 xmlns:xlink="http://www.w3.org/1999/xlink">
 <defs>
  <style type="text/css">
   <![CDATA[
    .fil0 {fill:#FEFEFE}
   ]]>
  </style>
 </defs>
 <g id="Layer_x0020_1">
  <metadata id="CorelCorpID_0Corel-Layer"/>
  <path class="fil0" d="M15881 12016c415,-969 1310,-1583 2289,-1687 88,-665 101,-1331 44,-1987 -1102,-14 -2138,-679 -2572,-1766 -439,-1096 -137,-2304 667,-3074 -412,-528 -885,-1014 -1414,-1447 -787,673 -1917,884 -2933,448 -1016,-435 -1643,-1399 -1698,-2433 -833,-104 -1666,-91 -2478,31 -136,965 -770,1832 -1739,2219 -910,364 -1897,218 -2645,-300 -500,401 -962,858 -1373,1366 622,782 806,1872 384,2856 -421,984 -1339,1603 -2336,1691 -98,748 -101,1498 -16,2232 949,148 1797,777 2180,1733 380,952 203,1989 -378,2749 449,591 972,1131 1564,1605 776,-575 1828,-734 2780,-326 952,409 1562,1280 1681,2239 844,115 1690,110 2516,-8 223,-822 815,-1532 1667,-1872 837,-335 1740,-238 2462,185 631,-463 1206,-1009 1706,-1632 -601,-780 -773,-1853 -358,-2822zm-8168 409c-1816,-779 -2657,-2881 -1879,-4697 779,-1816 2882,-2657 4698,-1878 1815,778 2656,2881 1878,4697 -779,1815 -2882,2656 -4697,1878z"/>
 </g>
</svg>
