<?xml version="1.0" encoding="UTF-8"?>
<!DOCTYPE svg PUBLIC "-//W3C//DTD SVG 1.1//EN" "http://www.w3.org/Graphics/SVG/1.1/DTD/svg11.dtd">
<!-- Creator: CorelDRAW X6 -->
<svg xmlns="http://www.w3.org/2000/svg" xml:space="preserve" width="5.6776mm" height="3.7689mm" version="1.1" style="shape-rendering:geometricPrecision; text-rendering:geometricPrecision; image-rendering:optimizeQuality; fill-rule:evenodd; clip-rule:evenodd"
viewBox="0 0 191 127"
 xmlns:xlink="http://www.w3.org/1999/xlink">
 <defs>
  <style type="text/css">
   <![CDATA[
    .fil0 {fill:#FEFEFE}
   ]]>
  </style>
 </defs>
 <g id="Layer_x0020_1">
  <metadata id="CorelCorpID_0Corel-Layer"/>
  <path class="fil0" d="M4 113c0,-1 1,-3 1,-5l15 -66c3,-12 15,-22 27,-23l122 0c-4,-5 -10,-9 -17,-9l-80 0c-4,-6 -11,-10 -18,-10l-32 0c-12,0 -22,10 -22,22l0 87c0,1 0,1 0,1 1,6 4,13 11,17 -4,-3 -6,-8 -7,-14zm186 -81c-2,-2 -4,-3 -7,-3l-135 0c-8,0 -16,7 -18,15l-15 66c-1,4 -1,6 1,8 1,2 3,3 6,3l133 0c8,0 17,-7 19,-15l17 -67c0,-3 0,-5 -1,-7z"/>
 </g>
</svg>
