<?xml version="1.0" encoding="UTF-8"?>
<!DOCTYPE svg PUBLIC "-//W3C//DTD SVG 1.1//EN" "http://www.w3.org/Graphics/SVG/1.1/DTD/svg11.dtd">
<!-- Creator: CorelDRAW X6 -->
<svg xmlns="http://www.w3.org/2000/svg" xml:space="preserve" width="63px" height="46px" version="1.1" style="shape-rendering:geometricPrecision; text-rendering:geometricPrecision; image-rendering:optimizeQuality; fill-rule:evenodd; clip-rule:evenodd"
viewBox="0 0 37528 27506"
 xmlns:xlink="http://www.w3.org/1999/xlink">
 <defs>
  <style type="text/css">
   <![CDATA[
    .fil0 {fill:#FEFEFE}
   ]]>
  </style>
 </defs>
 <g id="Layer_x0020_1">
  <metadata id="CorelCorpID_0Corel-Layer"/>
  <path class="fil0" d="M26260 0c3018,0 5464,2762 5464,6170 0,3406 -2446,6168 -5464,6168 -3018,0 -5464,-2762 -5464,-6168 0,-3408 2446,-6170 5464,-6170zm-4350 12462c1964,2581 7416,2615 8956,0 1774,-3011 6662,2814 6662,6255l0 5793 -13731 209 -71 -3818c-53,-2882 -3433,-7440 -5589,-7069 1514,-2322 2412,-3160 3773,-1370zm-15248 2995c1963,2582 7416,2615 8957,0 1772,-3011 6661,2815 6661,6256l0 5793 -22280 0 0 -5793c0,-3441 4533,-9056 6662,-6256zm4548 -12355c3019,0 5465,2762 5465,6170 0,3407 -2446,6169 -5465,6169 -3017,0 -5464,-2762 -5464,-6169 0,-3408 2447,-6170 5464,-6170z"/>
 </g>
</svg>
