<?xml version="1.0" encoding="UTF-8"?>
<!DOCTYPE svg PUBLIC "-//W3C//DTD SVG 1.1//EN" "http://www.w3.org/Graphics/SVG/1.1/DTD/svg11.dtd">
<!-- Creator: CorelDRAW X6 -->
<svg xmlns="http://www.w3.org/2000/svg" xml:space="preserve" width="35px" height="30px" version="1.1" style="shape-rendering:geometricPrecision; text-rendering:geometricPrecision; image-rendering:optimizeQuality; fill-rule:evenodd; clip-rule:evenodd"
viewBox="0 0 75782 63870"
 xmlns:xlink="http://www.w3.org/1999/xlink">
 <defs>
  <style type="text/css">
   <![CDATA[
    .fil0 {fill:white;fill-rule:nonzero}
   ]]>
  </style>
 </defs>
 <g id="Layer_x0020_1">
  <metadata id="CorelCorpID_0Corel-Layer"/>
  <path class="fil0" d="M57102 33718l0 20679 -47630 0 0 -36532 33153 0c186,-242 356,-492 575,-713l8760 -8759 -46413 0c-3064,0 -5547,2480 -5547,5547l0 44382c0,3062 2483,5548 5547,5548l55480 0c3064,0 5548,-2486 5548,-5548l0 -33690 -7932 7932c-463,464 -991,833 -1541,1154zm18321 -31166c-186,-1021 -1171,-2009 -2195,-2195l-17259 -316c-1024,-184 -1258,270 -520,1006l6393 6393 -14159 14162c-466,463 -461,1217 8,1683l4804 4804c468,468 1222,471 1683,7l14162 -14156 6395 6391c737,738 1190,504 1004,-520l-316 -17259z"/>
 </g>
</svg>
