<?xml version="1.0" encoding="UTF-8"?>
<!DOCTYPE svg PUBLIC "-//W3C//DTD SVG 1.1//EN" "http://www.w3.org/Graphics/SVG/1.1/DTD/svg11.dtd">
<!-- Creator: CorelDRAW X6 -->
<svg xmlns="http://www.w3.org/2000/svg" xml:space="preserve" width="37px" height="30px" version="1.1" style="shape-rendering:geometricPrecision; text-rendering:geometricPrecision; image-rendering:optimizeQuality; fill-rule:evenodd; clip-rule:evenodd"
viewBox="0 0 8951 7311"
 xmlns:xlink="http://www.w3.org/1999/xlink">
 <defs>
  <style type="text/css">
   <![CDATA[
    .fil0 {fill:#FEFEFE;fill-rule:nonzero}
   ]]>
  </style>
 </defs>
 <g id="Layer_x0020_1">
  <metadata id="CorelCorpID_0Corel-Layer"/>
  <path class="fil0" d="M8134 1032l-4512 0c0,0 -216,-1032 -709,-1032 -543,0 -2174,0 -2174,0 -408,0 -739,331 -739,739l0 1865c381,-271 846,-432 1350,-432l7523 0 0 -400c0,-409 -331,-740 -739,-740zm-6647 2181l7464 0 0 3368c0,402 -328,730 -730,730l-7464 0c-402,0 -730,-328 -730,-730l0 -1909c0,-803 656,-1459 1460,-1459zm1370 3409l1132 -1175c56,-80 56,-212 0,-293l-1132 -1175c-56,-80 -102,-66 -102,33l0 855 -1893 0c-62,0 -112,50 -112,113l0 642c0,62 50,113 112,113l1893 0 0 854c0,99 46,113 102,33z"/>
 </g>
</svg>
