<?xml version="1.0" encoding="UTF-8"?>
<!DOCTYPE svg PUBLIC "-//W3C//DTD SVG 1.1//EN" "http://www.w3.org/Graphics/SVG/1.1/DTD/svg11.dtd">
<!-- Creator: CorelDRAW X6 -->
<svg xmlns="http://www.w3.org/2000/svg" xml:space="preserve" width="30px" height="30px" version="1.1" style="shape-rendering:geometricPrecision; text-rendering:geometricPrecision; image-rendering:optimizeQuality; fill-rule:evenodd; clip-rule:evenodd"
viewBox="0 0 36733 35966"
 xmlns:xlink="http://www.w3.org/1999/xlink">
 <defs>
  <style type="text/css">
   <![CDATA[
    .fil0 {fill:#FEFEFE;fill-rule:nonzero}
   ]]>
  </style>
 </defs>
 <g id="Layer_x0020_1">
  <metadata id="CorelCorpID_0Corel-Layer"/>
  <path class="fil0" d="M29203 6425l4857 0 -6109 -6099 0 4849c0,343 137,655 366,881 230,228 538,369 886,369zm-4306 6650l-5517 0c-826,0 -1581,-337 -2120,-878 -541,-538 -878,-1291 -877,-2114l-1 -5596 -10013 0c-1204,0 -2181,974 -2181,2176l0 8426 20709 0 0 -2014zm9401 5580c-1,0 -2,-2 -4,-2l-31857 0c-1390,288 -2437,1519 -2437,2992l3826 11266c0,1686 1371,3055 3062,3055l22957 0c1690,0 3060,-1369 3060,-3055l3828 -11266c0,-1472 -1046,-2700 -2435,-2990zm-16330 11128l0 0c661,662 842,1552 182,2213 -663,661 -1551,477 -2210,-182l-2752 -2750c-1583,2235 -2513,3996 -2513,3996l-2536 -11073 11075 2534c0,0 -1774,973 -3989,2522l2743 2740zm-493 -26502c177,-63 360,-100 542,-100 426,0 843,166 1157,476l6642 6632c466,466 606,1164 354,1772 224,280 362,628 362,1014l0 2014 7766 0 0 -6502 -5516 0c-827,2 -1582,-337 -2122,-877 -540,-537 -879,-1293 -877,-2115l0 -5595 -10013 0c-1205,0 -2181,973 -2181,2177l0 678 2793 0c422,0 802,164 1093,426zm979 6456c0,350 140,664 372,897 233,231 547,372 900,372l4933 0 -6205 -6192 0 4923z"/>
 </g>
</svg>
