<?xml version="1.0" encoding="UTF-8"?>
<!DOCTYPE svg PUBLIC "-//W3C//DTD SVG 1.1//EN" "http://www.w3.org/Graphics/SVG/1.1/DTD/svg11.dtd">
<!-- Creator: CorelDRAW X6 -->
<svg xmlns="http://www.w3.org/2000/svg" xml:space="preserve" width="98px" height="98px" version="1.1" style="shape-rendering:geometricPrecision; text-rendering:geometricPrecision; image-rendering:optimizeQuality; fill-rule:evenodd; clip-rule:evenodd"
viewBox="0 0 49026 49119"
 xmlns:xlink="http://www.w3.org/1999/xlink">
 <defs>
  <style type="text/css">
   <![CDATA[
    .fil0 {fill:#2B2A29}
   ]]>
  </style>
 </defs>
 <g id="Layer_x0020_1">
  <metadata id="CorelCorpID_0Corel-Layer"/>
  <path class="fil0" d="M460 41174l19093 -14865 3129 2440 -20449 15930c790,1036 1658,1835 2581,2475l20745 -16160 3480 2715 -19607 15272c308,135 2442,159 5602,122l16881 -13150 3445 2687 -13418 10462 5742 1 10552 -8219 7005 5465c829,-705 1557,-1594 2205,-2639l-46773 -36423c-476,1164 -714,2416 -667,3772l16672 13006 -16672 13014c-35,1922 96,2834 454,4095zm48559 -25337l-20242 -15837 -5757 0 25999 20223 0 -4386zm0 9327l-32267 -25164 -5752 1 38019 29595 0 -4432zm0 9946l-43244 -33753c-1080,593 -2023,1347 -2850,2236l46010 35804c157,-841 56,-2858 84,-4287z"/>
 </g>
</svg>
