<?xml version="1.0" encoding="UTF-8"?>
<!DOCTYPE svg PUBLIC "-//W3C//DTD SVG 1.1//EN" "http://www.w3.org/Graphics/SVG/1.1/DTD/svg11.dtd">
<!-- Creator: CorelDRAW X6 -->
<svg xmlns="http://www.w3.org/2000/svg" xml:space="preserve" width="437px" height="68px" version="1.1" style="shape-rendering:geometricPrecision; text-rendering:geometricPrecision; image-rendering:optimizeQuality; fill-rule:evenodd; clip-rule:evenodd"
viewBox="0 0 1106248 172278"
 xmlns:xlink="http://www.w3.org/1999/xlink">
 <defs>
  <style type="text/css">
   <![CDATA[
    .fil0 {fill:white;fill-rule:nonzero}
   ]]>
  </style>
 </defs>
 <g id="Layer_x0020_1">
  <metadata id="CorelCorpID_0Corel-Layer"/>
  <path class="fil0" d="M171940 143453c0,7911 -2824,14694 -8476,20346 -5655,5652 -12435,8479 -20349,8479 -7914,0 -14697,-2827 -20349,-8479 -5652,-5652 -8476,-12435 -8476,-20346l0 -57315c0,-7911 -2771,-14637 -8309,-20179 -5541,-5538 -12154,-8308 -19840,-8308 -7687,0 -14356,2770 -20008,8308 -5655,5542 -8479,12268 -8479,20179l0 57315c0,7911 -2828,14694 -8480,20346 -5652,5652 -12435,8479 -20346,8479 -7914,0 -14697,-2827 -20349,-8479 -5652,-5652 -8479,-12435 -8479,-20346l0 -57315c0,-23739 8423,-44031 25265,-60873 16845,-16845 37137,-25265 60876,-25265 23739,0 43974,8420 60705,25265 16729,16842 25094,37134 25094,60873l0 57315zm186862 -57483c0,23796 -8366,44142 -25097,60987 -16729,16899 -36964,25321 -60703,25321 -23741,0 -44030,-8422 -60876,-25321 -16842,-16845 -25264,-37191 -25264,-60987 0,-23795 8422,-44087 25264,-60819 16846,-16785 37135,-25151 60876,-25151 23739,0 43974,8366 60703,25151 16731,16732 25097,37024 25097,60819zm-57654 0c0,-7971 -2713,-14697 -8138,-20121 -5427,-5485 -12097,-8198 -20008,-8198 -7914,0 -14640,2770 -20178,8365 -5541,5542 -8309,12211 -8309,19954 0,7744 2825,14470 8477,20122 5652,5708 12321,8533 20010,8533 7687,0 14299,-2768 19838,-8363 5541,-5541 8308,-12324 8308,-20292zm244516 57483c0,7911 -2825,14694 -8477,20346 -5655,5652 -12435,8479 -20349,8479 -7914,0 -14697,-2827 -20349,-8479 -5652,-5652 -8476,-12435 -8476,-20346l0 -57315c0,-7911 -2771,-14637 -8309,-20179 -5541,-5538 -12154,-8308 -19840,-8308 -7687,0 -14356,2770 -20008,8308 -5655,5542 -8479,12268 -8479,20179l0 57315c0,7911 -2828,14694 -8480,20346 -5652,5652 -12435,8479 -20346,8479 -7913,0 -14696,-2827 -20348,-8479 -5652,-5652 -8480,-12435 -8480,-20346l0 -57315c0,-23739 8423,-44031 25265,-60873 16845,-16845 37137,-25265 60876,-25265 23739,0 43974,8420 60705,25265 16729,16842 25095,37134 25095,60873l0 57315zm188217 -114628c0,7914 -2825,14697 -8477,20349 -5655,5652 -12435,8477 -20349,8477l-61722 0c-9042,0 -16053,3279 -21025,9834 -3845,5880 -7687,11870 -11532,17977 -5200,6555 -12321,9834 -21366,9834 -7911,0 -14694,-2827 -20346,-8479 -5655,-5652 -8479,-12435 -8479,-20349 0,-3165 565,-6442 1696,-9835 5652,-16728 16109,-30351 31369,-40865 15262,-10511 31823,-15768 49683,-15768l61722 0c7914,0 14694,2824 20349,8476 5652,5652 8477,12435 8477,20349zm-339 76982c0,3393 -565,6670 -1696,9835 -5879,16732 -16334,30354 -31369,40865 -15035,10514 -31482,15771 -49344,15771l-61723 0c-7911,0 -14694,-2827 -20346,-8479 -5655,-5652 -8479,-12435 -8479,-20346 0,-7914 2824,-14697 8479,-20349 5652,-5652 12435,-8479 20346,-8479l61723 0c12435,0 21252,-6274 26452,-18820 5201,-12549 14243,-18823 27132,-18823 7911,0 14694,2828 20346,8480 5652,5651 8479,12434 8479,20345zm185845 -19837c0,23796 -8366,44142 -25097,60987 -16729,16899 -36964,25321 -60703,25321 -23742,0 -44031,-8422 -60876,-25321 -16842,-16845 -25265,-37191 -25265,-60987 0,-23795 8423,-44087 25265,-60819 16845,-16785 37134,-25151 60876,-25151 23739,0 43974,8366 60703,25151 16731,16732 25097,37024 25097,60819zm-57654 0c0,-7971 -2714,-14697 -8138,-20121 -5428,-5485 -12097,-8198 -20008,-8198 -7914,0 -14640,2770 -20178,8365 -5541,5542 -8309,12211 -8309,19954 0,7744 2824,14470 8476,20122 5652,5708 12322,8533 20011,8533 7687,0 14299,-2768 19837,-8363 5542,-5541 8309,-12324 8309,-20292zm244515 -57145c0,7914 -2824,14697 -8476,20349 -5655,5652 -12435,8477 -20349,8477l-61723 0c-9042,0 -16052,3279 -21025,9834 -3844,5880 -7686,11870 -11531,17977 -5200,6555 -12321,9834 -21366,9834 -7911,0 -14694,-2827 -20346,-8479 -5655,-5652 -8479,-12435 -8479,-20349 0,-3165 565,-6442 1696,-9835 5652,-16728 16109,-30351 31369,-40865 15262,-10511 31823,-15768 49682,-15768l61723 0c7914,0 14694,2824 20349,8476 5652,5652 8476,12435 8476,20349zm-338 76982c0,3393 -565,6670 -1696,9835 -5880,16732 -16334,30354 -31369,40865 -15035,10514 -31482,15771 -49344,15771l-61723 0c-7911,0 -14694,-2827 -20346,-8479 -5655,-5652 -8479,-12435 -8479,-20346 0,-7914 2824,-14697 8479,-20349 5652,-5652 12435,-8479 20346,-8479l61723 0c12435,0 21252,-6274 26452,-18820 5200,-12549 14242,-18823 27132,-18823 7911,0 14694,2828 20346,8480 5652,5651 8479,12434 8479,20345z"/>
 </g>
</svg>
