<?xml version="1.0" encoding="UTF-8"?>
<!DOCTYPE svg PUBLIC "-//W3C//DTD SVG 1.1//EN" "http://www.w3.org/Graphics/SVG/1.1/DTD/svg11.dtd">
<!-- Creator: CorelDRAW X6 -->
<svg xmlns="http://www.w3.org/2000/svg" xml:space="preserve" width="47px" height="59px" version="1.1" style="shape-rendering:geometricPrecision; text-rendering:geometricPrecision; image-rendering:optimizeQuality; fill-rule:evenodd; clip-rule:evenodd"
viewBox="0 0 147812 185687"
 xmlns:xlink="http://www.w3.org/1999/xlink">
 <defs>
  <style type="text/css">
   <![CDATA[
    .fil0 {fill:black;fill-rule:nonzero}
   ]]>
  </style>
 </defs>
 <g id="Layer_x0020_1">
  <metadata id="CorelCorpID_0Corel-Layer"/>
  <path class="fil0" d="M101450 4163l0 34029c0,2419 969,4591 2570,6191 1607,1607 3761,2577 6209,2573l34025 4 -42804 -42797zm-57406 123632l0 -9757c0,-1792 1452,-3252 3248,-3252 1792,0 3252,1460 3252,3252l0 9757 -6500 0zm6500 19509l-6500 0 1736 -6929c-1025,-553 -1736,-1589 -1736,-2828 0,-1795 1452,-3252 3248,-3252 1796,0 3252,1457 3252,3252 0,1239 -715,2275 -1737,2828l1737 6929zm6504 -29266c0,-5379 -4376,-9756 -9756,-9756 -5376,0 -9753,4377 -9753,9756l0 9757 -6504 0 0 26013 32518 0 0 -26013 -6505 0 0 -9757zm88866 -58217l-38388 0c-4989,0 -9867,-2020 -13399,-5560 -3518,-3510 -5542,-8392 -5527,-13388l-15 -38978 0 -1895 -1895 0 -69648 0c-9391,0 -17042,7644 -17042,17050l0 151584c0,9402 7658,17053 17061,17053l113691 0c9398,0 17053,-7651 17053,-17053l7 -106921 0 -1892 -1898 0zm-126807 -35036l0 0c0,-1515 586,-2949 1667,-4022 1062,-1070 2492,-1660 4022,-1660l44689 0 0 29480c-14,7997 3216,15810 8861,21448 5637,5652 13462,8901 21467,8901l28892 0 -7 81966c0,3134 -2548,5682 -5686,5682l-98216 0c-3134,0 -5689,-2548 -5689,-5682l0 -136113z"/>
 </g>
</svg>
