<?xml version="1.0" encoding="UTF-8"?>
<!DOCTYPE svg PUBLIC "-//W3C//DTD SVG 1.1//EN" "http://www.w3.org/Graphics/SVG/1.1/DTD/svg11.dtd">
<!-- Creator: CorelDRAW X6 -->
<svg xmlns="http://www.w3.org/2000/svg" xml:space="preserve" width="110px" height="110px" version="1.1" style="shape-rendering:geometricPrecision; text-rendering:geometricPrecision; image-rendering:optimizeQuality; fill-rule:evenodd; clip-rule:evenodd"
viewBox="0 0 147070 147070"
 xmlns:xlink="http://www.w3.org/1999/xlink">
 <defs>
  <style type="text/css">
   <![CDATA[
    .fil0 {fill:#252422}
   ]]>
  </style>
 </defs>
 <g id="Layer_x0020_1">
  <metadata id="CorelCorpID_0Corel-Layer"/>
  <path class="fil0" d="M137880 36767l-59749 0 -12256 0 -56683 0 0 -27574 53454 0 8687 14289 1879 4093 4919 0 59749 0 0 9192zm0 101113l-128688 0 0 -91920 56683 0 12256 0 59749 0 0 91920zm-72005 -137880l-65875 0 0 36767 0 9193 0 101110 147070 0 0 -101110 0 -9193 0 -18382 -68939 0 -12256 -18385zm-36417 107174l0 -8390c0,-1542 1253,-2796 2797,-2796 1539,0 2796,1254 2796,2796l0 8390 -5593 0zm5593 16777l-5593 0 1495 -5959c-879,-474 -1495,-1365 -1495,-2430 0,-1546 1253,-2797 2797,-2797 1544,0 2796,1251 2796,2797 0,1065 -615,1956 -1493,2432l1493 5957zm5593 -25167c0,-4625 -3765,-8389 -8389,-8389 -4624,0 -8390,3764 -8390,8389l2 8390 -5593 0 0 22370 27963 0 0 -22370 -5593 0 0 -8390z"/>
 </g>
</svg>
