<?xml version="1.0" encoding="UTF-8"?>
<!DOCTYPE svg PUBLIC "-//W3C//DTD SVG 1.1//EN" "http://www.w3.org/Graphics/SVG/1.1/DTD/svg11.dtd">
<!-- Creator: CorelDRAW X6 -->
<svg xmlns="http://www.w3.org/2000/svg" xml:space="preserve" width="47px" height="59px" version="1.1" style="shape-rendering:geometricPrecision; text-rendering:geometricPrecision; image-rendering:optimizeQuality; fill-rule:evenodd; clip-rule:evenodd"
viewBox="0 0 74739 93890"
 xmlns:xlink="http://www.w3.org/1999/xlink">
 <defs>
  <style type="text/css">
   <![CDATA[
    .fil0 {fill:black;fill-rule:nonzero}
   ]]>
  </style>
 </defs>
 <g id="Layer_x0020_1">
  <metadata id="CorelCorpID_0Corel-Layer"/>
  <path class="fil0" d="M51296 2105l0 17206c0,1223 491,2321 1300,3130 813,813 1901,1304 3139,1302l17205 2 -21644 -21640zm22483 28143l-19410 0c-2523,0 -4989,-1022 -6774,-2812 -1780,-1775 -2804,-4243 -2796,-6769l-8 -19709 0 -958 -958 0 -35216 0c-4748,0 -8617,3865 -8617,8621l0 76646c0,4754 3872,8623 8626,8623l57486 0c4753,0 8623,-3869 8623,-8623l4 -54063 0 -956 -960 0zm-64118 -17716l0 0c0,-766 297,-1491 843,-2034 537,-540 1260,-839 2036,-839l22594 0 0 14906c-7,4044 1626,7994 4480,10845 2851,2858 6809,4501 10854,4501l14610 0 -4 41444c0,1585 -1288,2873 -2875,2873l-49659 0c-1587,0 -2879,-1288 -2879,-2873l0 -68823z"/>
 </g>
</svg>
