<?xml version="1.0" encoding="UTF-8"?>
<!DOCTYPE svg PUBLIC "-//W3C//DTD SVG 1.1//EN" "http://www.w3.org/Graphics/SVG/1.1/DTD/svg11.dtd">
<!-- Creator: CorelDRAW X6 -->
<svg xmlns="http://www.w3.org/2000/svg" xml:space="preserve" width="9.277mm" height="9.277mm" version="1.1" style="shape-rendering:geometricPrecision; text-rendering:geometricPrecision; image-rendering:optimizeQuality; fill-rule:evenodd; clip-rule:evenodd"
viewBox="0 0 93 93"
 xmlns:xlink="http://www.w3.org/1999/xlink">
 <defs>
  <style type="text/css">
   <![CDATA[
    .fil0 {fill:#252422}
   ]]>
  </style>
 </defs>
 <g id="Layer_x0020_1">
  <metadata id="CorelCorpID_0Corel-Layer"/>
  <path class="fil0" d="M87 23l-38 0 -7 0 -36 0 0 -17 34 0 5 9 1 2 3 0 38 0 0 6zm0 64l-81 0 0 -58 36 0 7 0 38 0 0 58zm-45 -87l-42 0 0 23 0 6 0 64 93 0 0 -64 0 -6 0 -11 -44 0 -7 -12z"/>
 </g>
</svg>
