<?xml version="1.0" encoding="UTF-8"?>
<!DOCTYPE svg PUBLIC "-//W3C//DTD SVG 1.1//EN" "http://www.w3.org/Graphics/SVG/1.1/DTD/svg11.dtd">
<!-- Creator: CorelDRAW X6 -->
<svg xmlns="http://www.w3.org/2000/svg" xml:space="preserve" width="13px" height="16px" version="1.1" style="shape-rendering:geometricPrecision; text-rendering:geometricPrecision; image-rendering:optimizeQuality; fill-rule:evenodd; clip-rule:evenodd"
viewBox="0 0 1240 1509"
 xmlns:xlink="http://www.w3.org/1999/xlink">
 <defs>
  <style type="text/css">
   <![CDATA[
    .fil0 {fill:white;fill-rule:nonzero}
   ]]>
  </style>
 </defs>
 <g id="Layer_x0020_1">
  <metadata id="CorelCorpID_0Corel-Layer"/>
  <path class="fil0" d="M90 568l16 -27 23 22 128 129 12 12 -7 16c-26,54 -39,110 -39,169 0,218 178,397 397,397 219,0 397,-179 397,-397 0,-205 -159,-376 -360,-395l0 218c0,32 -15,42 -34,23l-311 -327c-18,-19 -18,-52 0,-71l311 -327c19,-19 34,-10 34,22l0 238c324,20 583,291 583,619 0,342 -278,620 -620,620 -166,0 -321,-65 -439,-182 -117,-117 -181,-273 -181,-438 0,-113 31,-224 90,-321z"/>
 </g>
</svg>
