<?xml version="1.0" encoding="UTF-8"?>
<!DOCTYPE svg PUBLIC "-//W3C//DTD SVG 1.1//EN" "http://www.w3.org/Graphics/SVG/1.1/DTD/svg11.dtd">
<!-- Creator: CorelDRAW X6 -->
<svg xmlns="http://www.w3.org/2000/svg" xml:space="preserve" width="27px" height="27px" version="1.1" style="shape-rendering:geometricPrecision; text-rendering:geometricPrecision; image-rendering:optimizeQuality; fill-rule:evenodd; clip-rule:evenodd"
viewBox="0 0 5567 5510"
 xmlns:xlink="http://www.w3.org/1999/xlink">
 <defs>
  <style type="text/css">
   <![CDATA[
    .fil0 {fill:#000066;fill-rule:nonzero}
   ]]>
  </style>
 </defs>
 <g id="Layer_x0020_1">
  <metadata id="CorelCorpID_0Corel-Layer"/>
  <path class="fil0" d="M996 5440c-167,167 -598,6 -765,-161 -167,-167 -327,-598 -161,-766l1350 -1351c166,-168 598,-7 764,160 167,167 328,599 161,766l-1349 1352zm926 -3615c1,-1008 816,-1825 1823,-1825 1006,0 1822,817 1822,1825 0,1009 -816,1825 -1822,1826 -1007,-1 -1822,-817 -1823,-1826zm948 0l0 0c1,548 328,876 875,876 546,0 873,-328 874,-876 -1,-548 -328,-875 -874,-876 -547,1 -874,328 -875,876z"/>
 </g>
</svg>
