<?xml version="1.0" encoding="UTF-8"?>
<!DOCTYPE svg PUBLIC "-//W3C//DTD SVG 1.1//EN" "http://www.w3.org/Graphics/SVG/1.1/DTD/svg11.dtd">
<!-- Creator: CorelDRAW X6 -->
<svg xmlns="http://www.w3.org/2000/svg" xml:space="preserve" width="29px" height="30px" version="1.1" style="shape-rendering:geometricPrecision; text-rendering:geometricPrecision; image-rendering:optimizeQuality; fill-rule:evenodd; clip-rule:evenodd"
viewBox="0 0 10696 10808"
 xmlns:xlink="http://www.w3.org/1999/xlink">
 <defs>
  <style type="text/css">
   <![CDATA[
    .fil0 {fill:#FEFEFE;fill-rule:nonzero}
   ]]>
  </style>
 </defs>
 <g id="Layer_x0020_1">
  <metadata id="CorelCorpID_0Corel-Layer"/>
  <path class="fil0" d="M10696 5396l-27 -504c-17,-148 -76,-278 -160,-371 -86,-95 -198,-152 -322,-155 -26,0 -53,3 -81,10l-1010 192c-76,-329 -188,-649 -339,-952l906 -494c146,-76 216,-232 216,-393 0,-118 -36,-240 -107,-356 -198,-286 -415,-549 -653,-795 -131,-124 -286,-187 -434,-187 -122,-1 -245,46 -324,147l-660 793c-280,-217 -587,-398 -911,-536l377 -962c19,-46 27,-95 27,-145 -2,-110 -44,-217 -118,-307 -77,-87 -183,-158 -313,-192 -329,-95 -666,-155 -1007,-187 -15,-2 -30,-2 -44,-2 -146,0 -285,44 -390,120 -103,79 -170,191 -171,328 0,2 0,8 1,17l7 1023c-387,14 -768,86 -1132,208l-354 -972c-63,-179 -249,-284 -449,-284 -90,0 -187,21 -280,71 -120,59 -252,116 -379,198 0,2 -2,2 -2,2 -137,86 -289,164 -432,278 -164,116 -260,292 -260,465 0,98 33,196 102,273l674 779c-256,225 -470,492 -654,774l-879 -541c-63,-40 -137,-59 -212,-59 -195,0 -396,125 -493,347 -152,301 -272,627 -360,959 -17,58 -24,119 -24,178 -2,242 140,458 369,496l1015 173c-28,182 -42,365 -42,547 0,172 11,344 35,513l-1021 154c-112,16 -208,79 -274,168 -67,90 -107,206 -107,332 0,55 8,112 25,173 78,330 196,656 340,965 97,217 292,351 490,352 73,0 144,-19 207,-57l890 -522c201,326 449,627 740,882l-662 791c-65,73 -95,168 -95,259 0,176 101,351 266,475l362 227 2 2c152,99 312,162 457,236 91,44 183,63 272,63 204,0 392,-107 456,-292l336 -975c320,98 651,171 994,182l-24 1031c0,0 0,6 0,16 0,134 64,247 163,327 99,81 233,126 379,126 15,0 33,0 52,0 340,-24 681,-76 1015,-169 131,-29 239,-97 315,-187 77,-89 121,-198 121,-309 2,-47 -8,-95 -25,-139l-356 -968c324,-131 640,-299 921,-519l644 807c78,103 200,154 324,154 4,0 6,0 6,0 146,0 298,-63 424,-179 247,-240 470,-501 669,-782 79,-114 118,-242 118,-360 0,-162 -71,-316 -212,-392l-895 -513c181,-339 312,-703 389,-1080l1016 179c23,3 46,5 69,5 249,-3 461,-232 482,-530l21 -421 -95 -4 95 -5zm-5348 2185l0 0c-1201,0 -2175,-974 -2175,-2177 0,-1202 974,-2176 2175,-2176 1201,0 2174,974 2174,2176 0,1203 -973,2177 -2174,2177zm0 -3509c-735,0 -1331,597 -1331,1332 0,736 596,1333 1331,1333 735,0 1331,-597 1331,-1333 0,-735 -596,-1332 -1331,-1332z"/>
 </g>
</svg>
