<?xml version="1.0" encoding="UTF-8"?>
<!DOCTYPE svg PUBLIC "-//W3C//DTD SVG 1.1//EN" "http://www.w3.org/Graphics/SVG/1.1/DTD/svg11.dtd">
<!-- Creator: CorelDRAW X6 -->
<svg xmlns="http://www.w3.org/2000/svg" xml:space="preserve" width="28px" height="30px" version="1.1" style="shape-rendering:geometricPrecision; text-rendering:geometricPrecision; image-rendering:optimizeQuality; fill-rule:evenodd; clip-rule:evenodd"
viewBox="0 0 8300 8853"
 xmlns:xlink="http://www.w3.org/1999/xlink">
 <defs>
  <style type="text/css">
   <![CDATA[
    .fil0 {fill:white;fill-rule:nonzero}
   ]]>
  </style>
 </defs>
 <g id="Layer_x0020_1">
  <metadata id="CorelCorpID_0Corel-Layer"/>
  <path class="fil0" d="M8300 8374c0,264 -187,479 -415,479l-7470 0c-228,0 -415,-215 -415,-479l0 -479c0,-263 187,-479 415,-479l7470 0c228,0 415,216 415,479l0 479zm0 -2553c0,264 -187,479 -415,479l-7470 0c-228,0 -415,-215 -415,-479l0 -479c0,-263 187,-478 415,-478l7470 0c228,0 415,215 415,478l0 479zm0 -2472c0,263 -187,479 -415,479l-7470 0c-228,0 -415,-216 -415,-479l0 -479c0,-263 187,-479 415,-479l7470 0c228,0 415,216 415,479l0 479zm0 -2391c0,263 -187,478 -415,478l-7470 0c-228,0 -415,-215 -415,-478l0 -479c0,-263 187,-479 415,-479l7470 0c228,0 415,216 415,479l0 479z"/>
 </g>
</svg>
