<?xml version="1.0" encoding="UTF-8"?>
<!DOCTYPE svg PUBLIC "-//W3C//DTD SVG 1.1//EN" "http://www.w3.org/Graphics/SVG/1.1/DTD/svg11.dtd">
<!-- Creator: CorelDRAW X6 -->
<svg xmlns="http://www.w3.org/2000/svg" xml:space="preserve" width="28px" height="29px" version="1.1" style="shape-rendering:geometricPrecision; text-rendering:geometricPrecision; image-rendering:optimizeQuality; fill-rule:evenodd; clip-rule:evenodd"
viewBox="0 0 7587 8019"
 xmlns:xlink="http://www.w3.org/1999/xlink">
 <defs>
  <style type="text/css">
   <![CDATA[
    .fil0 {fill:white}
   ]]>
  </style>
 </defs>
 <g id="Layer_x0020_1">
  <metadata id="CorelCorpID_0Corel-Layer"/>
  <path class="fil0" d="M4652 6706l2526 0c225,0 409,183 409,408l0 497c0,224 -184,408 -409,408l-2526 0c-225,0 -409,-184 -409,-408l0 -497c0,-225 184,-408 409,-408zm-4244 0l2527 0c225,0 408,183 408,408l0 497c0,224 -183,408 -408,408l-2527 0c-224,0 -408,-184 -408,-408l0 -497c0,-225 184,-408 408,-408zm0 -2260l2527 0c225,0 408,184 408,408l0 497c0,224 -183,408 -408,408l-2527 0c-224,0 -408,-184 -408,-408l0 -497c0,-224 184,-408 408,-408zm4244 0l2526 0c225,0 409,184 409,408l0 497c0,224 -184,408 -409,408l-2526 0c-225,0 -409,-184 -409,-408l0 -497c0,-224 184,-408 409,-408zm0 -2260l2526 0c225,0 409,184 409,408l0 497c0,225 -184,408 -409,408l-2526 0c-225,0 -409,-183 -409,-408l0 -497c0,-224 184,-408 409,-408zm-4244 0l2527 0c225,0 408,184 408,408l0 497c0,225 -183,408 -408,408l-2527 0c-224,0 -408,-183 -408,-408l0 -497c0,-224 184,-408 408,-408zm0 -2186l2527 0c225,0 408,184 408,408l0 497c0,225 -183,408 -408,408l-2527 0c-224,0 -408,-183 -408,-408l0 -497c0,-224 184,-408 408,-408zm4244 0l2526 0c225,0 409,184 409,408l0 497c0,225 -184,408 -409,408l-2526 0c-225,0 -409,-183 -409,-408l0 -497c0,-224 184,-408 409,-408z"/>
 </g>
</svg>
