<?xml version="1.0" encoding="UTF-8"?>
<!DOCTYPE svg PUBLIC "-//W3C//DTD SVG 1.1//EN" "http://www.w3.org/Graphics/SVG/1.1/DTD/svg11.dtd">
<!-- Creator: CorelDRAW X6 -->
<svg xmlns="http://www.w3.org/2000/svg" xml:space="preserve" width="33px" height="36px" version="1.1" style="shape-rendering:geometricPrecision; text-rendering:geometricPrecision; image-rendering:optimizeQuality; fill-rule:evenodd; clip-rule:evenodd"
viewBox="0 0 9114 10130"
 xmlns:xlink="http://www.w3.org/1999/xlink">
 <defs>
  <style type="text/css">
   <![CDATA[
    .fil0 {fill:#FEFEFE}
   ]]>
  </style>
 </defs>
 <g id="Layer_x0020_1">
  <metadata id="CorelCorpID_0Corel-Layer"/>
  <path class="fil0" d="M3070 7566c-67,271 -396,448 -757,407 -293,-34 -655,-253 -566,-589 69,-263 409,-431 753,-394 283,32 650,254 570,576zm2095 -776c-44,-325 326,-520 627,-538 334,-20 681,178 715,456 39,324 -320,519 -620,536 -340,20 -683,-169 -722,-454zm-1534 -2380c-18,-72 -2,-409 -2,-507 1,-156 -57,-104 328,-188l1715 -368c286,-57 575,-133 861,-182l-1 624 -2901 621zm-2420 2961l0 213c39,70 31,355 360,625 341,281 630,255 703,294l277 0c9,-5 3,-3 23,-9 38,-11 137,-21 220,-46 210,-62 420,-186 552,-337 255,-293 254,-449 258,-933 6,-778 -4,-1580 18,-2360 34,-21 2140,-465 2529,-547 118,-25 254,-60 375,-79l-11 1714c-180,-62 -197,-122 -489,-164 -518,-76 -1083,164 -1299,628 -166,354 -59,744 140,977 564,660 1813,531 2113,-308 67,-187 51,-382 53,-599l15 -1931c1,-42 -7,-603 13,-647l0 -1081 -12 -21c-19,-36 -30,-70 -65,-105 -48,-48 -95,-55 -126,-77l-117 0c-42,26 -1402,306 -1579,344 -530,118 -1064,225 -1588,341 -404,90 -464,58 -466,498l-22 2879c-47,-12 -81,-38 -124,-58 -334,-156 -748,-157 -1076,-17 -299,127 -540,353 -633,656 -14,45 -21,113 -42,150zm-1211 -7346l6888 -25 2226 2325 -47 7805 -9067 0 0 -10105zm9094 2298l-2206 -2323 0 2323 2206 0z"/>
 </g>
</svg>
