<?xml version="1.0" encoding="UTF-8"?>
<!DOCTYPE svg PUBLIC "-//W3C//DTD SVG 1.1//EN" "http://www.w3.org/Graphics/SVG/1.1/DTD/svg11.dtd">
<!-- Creator: CorelDRAW X6 -->
<svg xmlns="http://www.w3.org/2000/svg" xml:space="preserve" width="30px" height="30px" version="1.1" style="shape-rendering:geometricPrecision; text-rendering:geometricPrecision; image-rendering:optimizeQuality; fill-rule:evenodd; clip-rule:evenodd"
viewBox="0 0 18406 18406"
 xmlns:xlink="http://www.w3.org/1999/xlink">
 <defs>
  <style type="text/css">
   <![CDATA[
    .fil0 {fill:#FEFEFE;fill-rule:nonzero}
   ]]>
  </style>
 </defs>
 <g id="Layer_x0020_1">
  <metadata id="CorelCorpID_0Corel-Layer"/>
  <g id="_409285120">
   <path class="fil0" d="M16873 6519l-4986 0 0 -4985c0,-847 -686,-1534 -1534,-1534l-2300 0c-847,0 -1534,687 -1534,1534l0 4985 -4985 0c-847,0 -1534,687 -1534,1534l0 2300c0,848 687,1534 1534,1534l4985 0 0 4986c0,847 687,1533 1534,1533l2300 0c848,0 1534,-686 1534,-1533l0 -4986 4986 0c847,0 1533,-686 1533,-1534l0 -2300c0,-847 -686,-1534 -1533,-1534z"/>
  </g>
 </g>
</svg>
